<svg viewBox="0 0 1050 300" xmlns="http://www.w3.org/2000/svg">
  <defs>
    <pattern id="stripes" width="16" height="16" patternUnits="userSpaceOnUse" patternTransform="rotate(45)">
      <rect width="16" height="16" fill="#131316"/>
      <rect width="8" height="16" fill="#17171b"/>
    </pattern>
  </defs>
  <rect width="1050" height="300" fill="url(#stripes)"/>

  <!-- clipboard / tale-of-the-tape stat sheet -->
  <rect x="150" y="50" width="220" height="220" rx="16" fill="none" stroke="#d4a24e" stroke-width="4" opacity="0.4"/>
  <rect x="222" y="34" width="76" height="28" rx="8" fill="#d4a24e" opacity="0.4"/>
  <rect x="180" y="100" width="160" height="10" fill="#d4a24e" opacity="0.3"/>
  <rect x="180" y="130" width="120" height="10" fill="#d4a24e" opacity="0.25"/>
  <rect x="180" y="160" width="160" height="10" fill="#d4a24e" opacity="0.3"/>
  <rect x="180" y="190" width="90" height="10" fill="#d4a24e" opacity="0.25"/>
  <rect x="180" y="220" width="140" height="10" fill="#d4a24e" opacity="0.3"/>
  <path d="M182 158 l16 16 l40 -40" stroke="#e0263e" stroke-width="8" fill="none" stroke-linecap="round" stroke-linejoin="round" opacity="0.85"/>

  <!-- fighter silhouette -->
  <g fill="#e0263e" opacity="0.9" transform="translate(700,22) scale(1.6)">
    <circle cx="70" cy="22" r="13"/>
    <polygon points="55,34 85,34 92,78 78,95 52,95 42,78"/>
    <polygon points="52,95 44,95 18,150 32,156 58,102"/>
    <polygon points="78,95 88,95 102,140 116,158 98,160 82,108"/>
    <polygon points="58,40 46,36 34,54 44,64 58,50"/>
    <circle cx="38" cy="59" r="8"/>
    <polygon points="82,38 100,30 122,16 128,26 104,44 88,50"/>
    <circle cx="124" cy="21" r="9"/>
  </g>

  <rect x="0" y="292" width="1050" height="8" fill="#d4a24e" opacity="0.5"/>
</svg>
